<?xml version="1.0" standalone="no"?>
<!DOCTYPE svg PUBLIC "-//W3C//DTD SVG 20010904//EN"
 "http://www.w3.org/TR/2001/REC-SVG-20010904/DTD/svg10.dtd">
<svg version="1.0" xmlns="http://www.w3.org/2000/svg"
 width="656.000000pt" height="350.000000pt" viewBox="0 0 656.000000 350.000000"
 preserveAspectRatio="xMidYMid meet">

<g transform="translate(0.000000,350.000000) scale(0.100000,-0.100000)"
fill="#000000" stroke="none">
<path d="M1770 3180 c0 -16 -5 -30 -11 -30 -8 0 -8 -4 -1 -13 6 -7 12 -37 15
-67 l3 -55 2 57 c2 42 6 60 20 67 16 10 16 10 0 11 -26 0 -23 39 5 50 21 8 21
9 -5 9 -25 1 -28 -3 -28 -29z"/>
<path d="M230 3110 c0 -53 4 -90 10 -90 6 0 10 15 10 33 0 30 4 34 37 43 28 7
40 16 48 38 8 24 6 31 -14 47 -13 10 -38 19 -57 19 l-34 0 0 -90z m71 70 c25
-14 25 -56 0 -70 -40 -21 -51 -13 -51 35 0 48 11 56 51 35z"/>
<path d="M460 3189 c0 -5 5 -7 10 -4 6 3 10 8 10 11 0 2 -4 4 -10 4 -5 0 -10
-5 -10 -11z"/>
<path d="M1144 3110 c0 -52 1 -74 3 -47 2 26 2 68 0 95 -2 26 -3 4 -3 -48z"/>
<path d="M1280 3170 c0 -27 -3 -30 -24 -24 -30 7 -66 -25 -66 -61 0 -43 57
-84 75 -55 5 8 11 7 21 -1 12 -10 14 2 14 80 0 54 -4 91 -10 91 -5 0 -10 -14
-10 -30z m-5 -85 c0 -35 -3 -40 -24 -43 -26 -4 -41 12 -41 44 0 27 20 45 45
42 16 -2 20 -11 20 -43z"/>
<path d="M1700 3189 c0 -5 5 -7 10 -4 6 3 10 8 10 11 0 2 -4 4 -10 4 -5 0 -10
-5 -10 -11z"/>
<path d="M1840 3190 c0 -5 5 -10 10 -10 6 0 10 5 10 10 0 6 -4 10 -10 10 -5 0
-10 -4 -10 -10z"/>
<path d="M1621 3168 c0 -10 -6 -18 -13 -18 -9 0 -9 -3 0 -12 7 -7 12 -33 12
-59 0 -33 5 -49 16 -53 24 -9 34 -7 34 6 0 6 -3 8 -7 5 -14 -14 -33 17 -33 55
0 31 5 40 23 48 l22 9 -22 0 c-12 1 -24 9 -26 19 -4 16 -5 16 -6 0z"/>
<path d="M370 3085 c0 -78 18 -88 22 -12 3 45 6 52 26 55 12 2 22 8 22 13 0
13 -24 11 -38 -3 -9 -9 -12 -9 -12 0 0 7 -4 12 -10 12 -6 0 -10 -28 -10 -65z"/>
<path d="M460 3085 c0 -37 4 -65 10 -65 6 0 10 28 10 65 0 37 -4 65 -10 65 -6
0 -10 -28 -10 -65z"/>
<path d="M520 3088 c0 -80 18 -92 22 -15 3 48 5 52 28 52 23 0 25 -4 28 -52 2
-29 7 -53 12 -53 5 0 10 24 12 53 3 48 5 52 28 52 23 0 25 -5 31 -55 l6 -55 1
62 c2 54 0 62 -18 68 -12 4 -27 1 -35 -5 -12 -10 -18 -10 -30 0 -12 10 -21 10
-42 1 -21 -10 -28 -9 -34 1 -5 8 -9 -15 -9 -54z"/>
<path d="M758 3143 c-29 -7 -20 -18 14 -18 30 0 33 -3 35 -35 3 -37 -17 -63
-43 -53 -19 7 -18 30 4 42 23 14 6 14 -19 1 -41 -23 -7 -72 36 -52 15 7 25 8
25 2 0 -6 5 -10 11 -10 17 0 6 110 -12 121 -15 9 -23 10 -51 2z"/>
<path d="M870 3088 c0 -39 4 -68 10 -68 6 0 10 23 10 51 0 42 3 52 20 56 11 3
20 9 20 14 0 13 -14 11 -28 -3 -10 -10 -15 -10 -22 2 -7 10 -10 -6 -10 -52z"/>
<path d="M950 3145 c0 -3 12 -33 26 -67 l26 -62 -27 -23 c-15 -14 -20 -23 -12
-23 22 0 45 32 66 91 10 30 22 62 26 72 4 10 3 17 -4 17 -5 0 -16 -19 -22 -42
-18 -64 -26 -65 -46 -9 -10 28 -21 51 -25 51 -5 0 -8 -2 -8 -5z"/>
<path d="M1359 3140 c-22 -13 -31 -53 -19 -84 11 -30 50 -43 77 -26 17 11 17
11 -1 6 -20 -7 -66 18 -66 34 0 6 20 10 45 10 49 0 56 10 29 48 -16 23 -39 27
-65 12z m49 -12 c23 -23 13 -38 -23 -38 -39 0 -48 21 -17 39 22 13 26 13 40
-1z"/>
<path d="M1470 3085 c0 -78 18 -88 22 -12 3 48 5 52 30 55 29 3 34 -5 41 -78
3 -23 4 -15 5 21 2 68 -14 89 -53 71 -15 -7 -25 -8 -25 -2 0 6 -4 10 -10 10
-6 0 -10 -28 -10 -65z"/>
<path d="M1700 3085 c0 -37 4 -65 10 -65 6 0 10 28 10 65 0 37 -4 65 -10 65
-6 0 -10 -28 -10 -65z"/>
<path d="M1840 3085 c0 -37 4 -65 10 -65 6 0 10 28 10 65 0 37 -4 65 -10 65
-6 0 -10 -28 -10 -65z"/>
<path d="M1917 3132 c-43 -47 3 -131 56 -103 15 8 16 10 3 6 -20 -6 -66 19
-66 35 0 6 20 10 45 10 38 0 45 3 45 19 0 24 -26 51 -49 51 -10 0 -25 -8 -34
-18z m47 2 c9 -3 16 -15 16 -25 0 -15 -7 -19 -35 -19 -38 0 -44 10 -19 34 18
18 17 18 38 10z"/>
<path d="M2030 3085 c0 -78 18 -88 22 -12 3 45 6 52 26 55 12 2 22 8 22 13 0
13 -24 11 -38 -3 -9 -9 -12 -9 -12 0 0 7 -4 12 -10 12 -6 0 -10 -28 -10 -65z"/>
<path d="M2672 2074 c-24 -17 -30 -62 -10 -82 20 -20 65 -14 82 10 21 30 20
44 -4 68 -24 24 -38 25 -68 4z"/>
<path d="M2190 1820 l0 -260 45 0 45 0 0 260 0 260 -45 0 -45 0 0 -260z"/>
<path d="M2400 1975 c0 -41 -2 -45 -25 -45 -23 0 -25 -3 -25 -50 0 -46 2 -50
24 -50 22 0 23 -4 29 -81 9 -117 50 -175 127 -181 l35 -3 0 45 c0 37 -3 45
-20 48 -34 6 -45 32 -45 104 l0 69 73 -3 72 -3 5 -130 5 -130 48 -3 47 -3 0
155 c0 149 -1 156 -24 183 -23 27 -29 28 -125 31 l-101 4 0 44 0 44 -50 0 -50
0 0 -45z"/>
<path d="M1253 1914 c-18 -9 -43 -33 -55 -53 -20 -32 -23 -52 -26 -168 l-4
-133 45 0 45 0 3 119 c5 136 16 161 75 161 54 0 64 -25 64 -162 l0 -118 50 0
50 0 0 118 c0 137 10 162 64 162 59 0 71 -25 74 -161 l4 -119 44 0 44 0 0 123
c0 107 -3 128 -22 167 -15 29 -35 51 -58 62 -48 24 -126 23 -167 -2 -33 -20
-33 -20 -65 0 -41 25 -120 26 -165 4z"/>
<path d="M1800 1803 c0 -102 4 -135 18 -163 52 -104 210 -109 272 -8 17 29 20
51 20 166 l0 132 -45 0 -45 0 0 -120 c0 -107 -2 -122 -20 -140 -11 -11 -31
-20 -45 -20 -14 0 -34 9 -45 20 -18 18 -20 33 -20 140 l0 120 -45 0 -45 0 0
-127z"/>
<path d="M2902 1909 c-65 -33 -97 -87 -97 -163 1 -76 36 -135 99 -166 95 -46
204 -10 252 83 l15 27 -52 0 c-36 0 -58 -6 -76 -20 -36 -28 -77 -25 -113 8
-49 42 -43 120 10 147 40 20 72 19 103 -5 18 -14 40 -20 77 -20 l51 0 -21 38
c-47 84 -159 116 -248 71z"/>
<path d="M3315 1914 c-47 -26 -66 -46 -86 -89 -52 -113 19 -246 140 -262 48
-7 84 1 105 23 15 14 16 14 16 -5 0 -18 6 -21 45 -21 l45 0 0 118 c0 134 -11
165 -74 216 -30 25 -47 31 -99 33 -43 2 -71 -2 -92 -13z m147 -104 c27 -28 30
-36 25 -73 -13 -99 -136 -120 -173 -31 -42 101 71 180 148 104z"/>
<path d="M3730 1912 c-23 -11 -43 -33 -57 -62 -20 -39 -23 -60 -23 -167 l0
-123 45 0 45 0 0 111 c0 105 8 144 34 161 21 14 66 8 86 -12 18 -18 20 -33 20
-140 l0 -120 44 0 44 0 4 120 c5 135 16 160 73 160 57 0 68 -25 73 -160 l4
-120 45 0 45 0 -4 133 c-4 150 -19 191 -82 221 -47 22 -123 21 -163 -3 -31
-19 -32 -19 -69 0 -48 24 -118 25 -164 1z"/>
<path d="M4385 1916 c-39 -18 -70 -48 -92 -89 -15 -26 -18 -65 -21 -219 l-4
-188 51 0 51 0 0 81 c0 74 2 80 18 73 31 -14 100 -16 136 -4 73 24 136 130
121 203 -11 50 -43 100 -81 127 -44 29 -133 38 -179 16z m118 -88 c34 -18 46
-40 47 -85 0 -34 -5 -46 -31 -67 -39 -33 -79 -33 -118 0 -26 21 -31 33 -31 69
0 36 5 48 31 69 33 28 67 33 102 14z"/>
<path d="M4700 1807 c0 -107 3 -128 23 -167 37 -75 136 -103 217 -62 61 30 75
69 78 220 l4 132 -45 0 -45 0 -4 -119 c-3 -132 -16 -161 -68 -161 -52 0 -65
29 -68 161 l-4 119 -44 0 -44 0 0 -123z"/>
<path d="M5144 1916 c-41 -18 -64 -52 -64 -94 0 -65 34 -94 125 -107 60 -9 85
-21 85 -40 0 -36 -92 -44 -120 -10 -14 17 -100 21 -100 5 0 -6 7 -25 16 -41
42 -81 225 -93 278 -18 24 35 21 101 -6 126 -32 29 -56 39 -109 47 -26 4 -55
13 -65 20 -15 12 -16 16 -5 30 17 20 75 21 91 1 8 -9 30 -15 56 -15 49 0 57
17 28 59 -34 47 -142 66 -210 37z"/>
</g>
</svg>
